<svg height="512" viewBox="0 0 24 24" width="512" xmlns="http://www.w3.org/2000/svg"><g id="Layer_2" data-name="Layer 2"><path d="m3.05 21.77a1.22 1.22 0 0 1 -.88-.36 1.28 1.28 0 0 1 -.33-1.19l1.16-4.58a1.61 1.61 0 0 1 .46-.81l13.23-13.25a2.82 2.82 0 0 1 3.89 0l1.42 1.42a2.75 2.75 0 0 1 0 3.88l-13.25 13.25a1.77 1.77 0 0 1 -.81.46l-4.58 1.14a1.1 1.1 0 0 1 -.31.04zm15.58-19.5a1.22 1.22 0 0 0 -.88.37l-13.24 13.24a.37.37 0 0 0 -.07.12l-1 4.18 4.18-1.05a.24.24 0 0 0 .11-.06l13.2-13.25a1.24 1.24 0 0 0 0-1.76l-1.41-1.42a1.26 1.26 0 0 0 -.89-.37z"/><path d="m19.62 8.94a.74.74 0 0 1 -.53-.22l-4.24-4.24a.75.75 0 1 1 1.06-1.06l4.24 4.24a.75.75 0 0 1 0 1.06.74.74 0 0 1 -.53.22z"/></g></svg>